<svg id="圖層_1" data-name="圖層 1" xmlns="http://www.w3.org/2000/svg" viewBox="0 0 241.75 278.9"><defs><style>.cls-1{fill:#fff;}</style></defs><path class="cls-1" d="M129.12,386.44l51-36.95c-4.81-4.82-9.23-9.43-13.85-14.05-6.83-7-13.65-13.86-20.48-20.68a2.06,2.06,0,0,1-.4-3q26.21-53,52-105.81l45.78-93.37c.2-.4.61-1,1.21-2V230.62a6.21,6.21,0,0,1-2,4.82q-31.62,33.13-63.25,66.67a5.47,5.47,0,0,0-.8,1l57.22,86.34-8.63-1.81a30.27,30.27,0,0,0-5.82-1.2,15.77,15.77,0,0,1-10.65-5.82c-3.81-4.22-8-8-11.84-12.25a3.09,3.09,0,0,0-3.42-.81l-63.25,18.68c-.8.2-1.8.6-2.81.8Z" transform="translate(-129.12 -110.55)"/><path class="cls-1" d="M264.26,389.45q28.9-43.67,57.42-86.34c-4-4.42-8-8.63-11.84-12.85-17.67-19.08-35.14-38.15-52.61-57a4.43,4.43,0,0,1-1.21-3V110.75c2.21,4.42,4.22,8.43,6,12.25,11.64,23.89,23.29,47.59,34.94,71.48,19.07,39.16,38.35,78.11,57.42,117.26a2.82,2.82,0,0,1-.6,3.62C343,326.2,332.12,337,321.48,348.09a16.81,16.81,0,0,1-2,1.6l51.41,36.95-.2.4-19.08-5.62c-15.66-4.62-31.32-9.24-46.78-13.86a2.79,2.79,0,0,0-3.42.81c-5,5-10,10.24-15.06,15.26a7.83,7.83,0,0,1-2,1.6C277.91,386.44,271.48,387.84,264.26,389.45Z" transform="translate(-129.12 -110.55)"/><path class="cls-1" d="M198.6,299.09,250,339.85l51.2-40.56.4.21c-.8,1.2-1.4,2.4-2.21,3.41-14.45,21.28-28.91,42.57-43.37,63.65a5.63,5.63,0,0,1-4.82,2.61c-5,.6-7.63-1.41-10.24-5.42-13.65-21.08-27.5-41.77-41.36-62.65a8,8,0,0,1-1-1.81Z" transform="translate(-129.12 -110.55)"/></svg>